<svg xmlns="http://www.w3.org/2000/svg" xmlns:xlink="http://www.w3.org/1999/xlink" id="body_1" preserveAspectRatio="xMinYMin meet" viewBox="0 0 793 1121"><defs><clipPath id="1"><path d="M0 841L0 -0.9000244L0 -0.9000244L595.3 -0.9000244L595.3 -0.9000244L595.3 841L595.3 841L0 841z" /></clipPath><clipPath id="2"><path d="M0 -0.9000244L595.3 -0.9000244L595.3 -0.9000244L595.3 841L595.3 841L0 841z" /></clipPath><clipPath id="3"><path d="M0 -0.9000244L595.3 -0.9000244L595.3 -0.9000244L595.3 841L595.3 841L0 841z" /></clipPath><clipPath id="4"><path d="M36.55 27.44995L558.75 27.44995L558.75 27.44995L558.75 82.14996L558.75 82.14996L36.55 82.14996z" /></clipPath><clipPath id="5"><path d="M36.55 27.44995L558.75 27.44995L558.75 27.44995L558.75 82.14996L558.75 82.14996L36.55 82.14996z" /></clipPath><clipPath id="6"><path d="M0 -0.9000244L595.3 -0.9000244L595.3 -0.9000244L595.3 841L595.3 841L0 841z" /></clipPath><clipPath id="7"><path d="M36.55 99.59998L151.05 99.59998L151.05 99.59998L151.05 117.6L151.05 117.6L36.55 117.6z" /></clipPath><clipPath id="8"><path d="M0 -0.9000244L595.3 -0.9000244L595.3 -0.9000244L595.3 841L595.3 841L0 841z" /></clipPath><clipPath id="9"><path d="M151 99.59998L282.25 99.59998L282.25 99.59998L282.25 117.6L282.25 117.6L151 117.6z" /></clipPath><clipPath id="10"><path d="M0 -0.9000244L595.3 -0.9000244L595.3 -0.9000244L595.3 841L595.3 841L0 841z" /></clipPath><clipPath id="11"><path d="M282.2 99.59998L341.4 99.59998L341.4 99.59998L341.4 117.6L341.4 117.6L282.2 117.6z" /></clipPath><clipPath id="12"><path d="M0 -0.9000244L595.3 -0.9000244L595.3 -0.9000244L595.3 841L595.3 841L0 841z" /></clipPath><clipPath id="13"><path d="M341.35 99.59998L468.2 99.59998L468.2 99.59998L468.2 117.6L468.2 117.6L341.35 117.6z" /></clipPath><clipPath id="14"><path d="M0 -0.9000244L595.3 -0.9000244L595.3 -0.9000244L595.3 841L595.3 841L0 841z" /></clipPath><clipPath id="15"><path d="M36.55 117.6L151.05 117.6L151.05 117.6L151.05 135.6L151.05 135.6L36.55 135.6z" /></clipPath><clipPath id="16"><path d="M0 -0.9000244L595.3 -0.9000244L595.3 -0.9000244L595.3 841L595.3 841L0 841z" /></clipPath><clipPath id="17"><path d="M151 117.6L282.25 117.6L282.25 117.6L282.25 135.6L282.25 135.6L151 135.6z" /></clipPath><clipPath id="18"><path d="M0 -0.9000244L595.3 -0.9000244L595.3 -0.9000244L595.3 841L595.3 841L0 841z" /></clipPath><clipPath id="19"><path d="M282.2 117.6L341.4 117.6L341.4 117.6L341.4 135.6L341.4 135.6L282.2 135.6z" /></clipPath><clipPath id="20"><path d="M0 -0.9000244L595.3 -0.9000244L595.3 -0.9000244L595.3 841L595.3 841L0 841z" /></clipPath><clipPath id="21"><path d="M341.35 117.6L468.2 117.6L468.2 117.6L468.2 135.6L468.2 135.6L341.35 135.6z" /></clipPath><clipPath id="22"><path d="M0 -0.9000244L595.3 -0.9000244L595.3 -0.9000244L595.3 841L595.3 841L0 841z" /></clipPath><clipPath id="23"><path d="M36.55 135.6L151.05 135.6L151.05 135.6L151.05 153.6L151.05 153.6L36.55 153.6z" /></clipPath><clipPath id="24"><path d="M0 -0.9000244L595.3 -0.9000244L595.3 -0.9000244L595.3 841L595.3 841L0 841z" /></clipPath><clipPath id="25"><path d="M151 135.6L282.25 135.6L282.25 135.6L282.25 153.6L282.25 153.6L151 153.6z" /></clipPath><clipPath id="26"><path d="M0 -0.9000244L595.3 -0.9000244L595.3 -0.9000244L595.3 841L595.3 841L0 841z" /></clipPath><clipPath id="27"><path d="M282.2 135.6L341.4 135.6L341.4 135.6L341.4 153.6L341.4 153.6L282.2 153.6z" /></clipPath><clipPath id="28"><path d="M0 -0.9000244L595.3 -0.9000244L595.3 -0.9000244L595.3 841L595.3 841L0 841z" /></clipPath><clipPath id="29"><path d="M341.35 135.6L468.2 135.6L468.2 135.6L468.2 153.6L468.2 153.6L341.35 153.6z" /></clipPath><clipPath id="30"><path d="M0 -0.9000244L595.3 -0.9000244L595.3 -0.9000244L595.3 841L595.3 841L0 841z" /></clipPath><clipPath id="31"><path d="M36.55 153.6L151.05 153.6L151.05 153.6L151.05 184.8L151.05 184.8L36.55 184.8z" /></clipPath><clipPath id="32"><path d="M0 -0.9000244L595.3 -0.9000244L595.3 -0.9000244L595.3 841L595.3 841L0 841z" /></clipPath><clipPath id="33"><path d="M151 153.6L282.25 153.6L282.25 153.6L282.25 184.8L282.25 184.8L151 184.8z" /></clipPath><clipPath id="34"><path d="M0 -0.9000244L595.3 -0.9000244L595.3 -0.9000244L595.3 841L595.3 841L0 841z" /></clipPath><clipPath id="35"><path d="M282.2 153.6L341.4 153.6L341.4 153.6L341.4 184.8L341.4 184.8L282.2 184.8z" /></clipPath><clipPath id="36"><path d="M0 -0.9000244L595.3 -0.9000244L595.3 -0.9000244L595.3 841L595.3 841L0 841z" /></clipPath><clipPath id="37"><path d="M341.35 153.6L468.2 153.6L468.2 153.6L468.2 184.8L468.2 184.8L341.35 184.8z" /></clipPath><clipPath id="38"><path d="M0 -0.9000244L595.3 -0.9000244L595.3 -0.9000244L595.3 841L595.3 841L0 841z" /></clipPath><clipPath id="39"><path d="M36.55 184.8L151.05 184.8L151.05 184.8L151.05 202.8L151.05 202.8L36.55 202.8z" /></clipPath><clipPath id="40"><path d="M0 -0.9000244L595.3 -0.9000244L595.3 -0.9000244L595.3 841L595.3 841L0 841z" /></clipPath><clipPath id="41"><path d="M151 184.8L282.25 184.8L282.25 184.8L282.25 202.8L282.25 202.8L151 202.8z" /></clipPath><clipPath id="42"><path d="M0 -0.9000244L595.3 -0.9000244L595.3 -0.9000244L595.3 841L595.3 841L0 841z" /></clipPath><clipPath id="43"><path d="M36.55 215.55L151.05 215.55L151.05 215.55L151.05 235.55L151.05 235.55L36.55 235.55z" /></clipPath><clipPath id="44"><path d="M0 -0.9000244L595.3 -0.9000244L595.3 -0.9000244L595.3 841L595.3 841L0 841z" /></clipPath><clipPath id="45"><path d="M151 215.55L558.75 215.55L558.75 215.55L558.75 235.55L558.75 235.55L151 235.55z" /></clipPath><clipPath id="46"><path d="M0 -0.9000244L595.3 -0.9000244L595.3 -0.9000244L595.3 841L595.3 841L0 841z" /></clipPath><clipPath id="47"><path d="M36.55 244.1L558.75 244.1L558.75 244.1L558.75 313.55L558.75 313.55L36.55 313.55z" /></clipPath><clipPath id="48"><path d="M0 -0.9000244L595.3 -0.9000244L595.3 -0.9000244L595.3 841L595.3 841L0 841z" /></clipPath><clipPath id="49"><path d="M36.55 322.15L151.05 322.15L151.05 322.15L151.05 342.15L151.05 342.15L36.55 342.15z" /></clipPath><clipPath id="50"><path d="M0 -0.9000244L595.3 -0.9000244L595.3 -0.9000244L595.3 841L595.3 841L0 841z" /></clipPath><clipPath id="51"><path d="M151 322.15L558.75 322.15L558.75 322.15L558.75 342.15L558.75 342.15L151 342.15z" /></clipPath><clipPath id="52"><path d="M0 -0.9000244L595.3 -0.9000244L595.3 -0.9000244L595.3 841L595.3 841L0 841z" /></clipPath><clipPath id="53"><path d="M36.55 350.75L558.75 350.75L558.75 350.75L558.75 505.95L558.75 505.95L36.55 505.95z" /></clipPath><clipPath id="54"><path d="M0 -0.9000244L595.3 -0.9000244L595.3 -0.9000244L595.3 841L595.3 841L0 841z" /></clipPath><clipPath id="55"><path d="M36.55 514.55L151.05 514.55L151.05 514.55L151.05 534.55L151.05 534.55L36.55 534.55z" /></clipPath><clipPath id="56"><path d="M0 -0.9000244L595.3 -0.9000244L595.3 -0.9000244L595.3 841L595.3 841L0 841z" /></clipPath><clipPath id="57"><path d="M151 514.55L558.75 514.55L558.75 514.55L558.75 534.55L558.75 534.55L151 534.55z" /></clipPath><clipPath id="58"><path d="M0 -0.9000244L595.3 -0.9000244L595.3 -0.9000244L595.3 841L595.3 841L0 841z" /></clipPath><clipPath id="59"><path d="M36.55 534.55L558.75 534.55L558.75 534.55L558.75 639.15L558.75 639.15L36.55 639.15z" /></clipPath><clipPath id="60"><path d="M0 -0.9000244L595.3 -0.9000244L595.3 -0.9000244L595.3 841L595.3 841L0 841z" /></clipPath><clipPath id="61"><path d="M36.55 647.75L151.05 647.75L151.05 647.75L151.05 667.75L151.05 667.75L36.55 667.75z" /></clipPath><clipPath id="62"><path d="M0 -0.9000244L595.3 -0.9000244L595.3 -0.9000244L595.3 841L595.3 841L0 841z" /></clipPath><clipPath id="63"><path d="M151 647.75L558.75 647.75L558.75 647.75L558.75 667.75L558.75 667.75L151 667.75z" /></clipPath><clipPath id="64"><path d="M0 -0.9000244L595.3 -0.9000244L595.3 -0.9000244L595.3 841L595.3 841L0 841z" /></clipPath><clipPath id="65"><path d="M36.55 676.35L558.75 676.35L558.75 676.35L558.75 744.95L558.75 744.95L36.55 744.95z" /></clipPath><clipPath id="66"><path d="M0 -0.9000244L595.3 -0.9000244L595.3 -0.9000244L595.3 841L595.3 841L0 841z" /></clipPath><clipPath id="67"><path d="M36.55 753.5L151.05 753.5L151.05 753.5L151.05 773.5L151.05 773.5L36.55 773.5z" /></clipPath><clipPath id="68"><path d="M0 -0.9000244L595.3 -0.9000244L595.3 -0.9000244L595.3 841L595.3 841L0 841z" /></clipPath><clipPath id="69"><path d="M151 753.5L558.75 753.5L558.75 753.5L558.75 773.5L558.75 773.5L151 773.5z" /></clipPath><clipPath id="70"><path d="M0 -0.9000244L595.3 -0.9000244L595.3 -0.9000244L595.3 841L595.3 841L0 841z" /></clipPath><clipPath id="71"><path d="M36.55 782.1L558.75 782.1L558.75 782.1L558.75 799.3L558.75 799.3L36.55 799.3z" /></clipPath><clipPath id="72"><path d="M0 -0.9000244L595.3 -0.9000244L595.3 -0.9000244L595.3 841L595.3 841L0 841z" /></clipPath></defs><g transform="matrix(1.333333 0 0 1.333333 0 0)"><g><g clip-path="url(#1)"><g clip-path="url(#2)"><path transform="matrix(1 0 0 -1 0 841)" d="M0 841.9L0 -0.0199585L0 -0.0199585L595.32 -0.0199585L595.32 -0.0199585L595.32 841.9L595.32 841.9L0 841.9" stroke="none" fill="#FFFFFF" fill-rule="evenodd" /></g><g clip-path="url(#3)"><g clip-path="url(#4)"><path transform="matrix(1 0 0 -1 0 841)" d="M36.45 813.65L558.85 813.65L558.85 813.65L558.85 758.7L558.85 758.7L36.45 758.7z" stroke="none" fill="#2D3E50" fill-rule="evenodd" /></g></g><g clip-path="url(#5)"><g transform="matrix(0.2397707 0 0 0.2402153 235.204 38.93799)"><g transform="matrix(1 0 0 1 0 0)"><image x="0" y="0" xlink:href="img_01.png" width="519" height="144" /></g></g></g><g clip-path="url(#6)"><g clip-path="url(#7)"></g></g><g clip-path="url(#8)"><g clip-path="url(#9)"></g></g><g clip-path="url(#10)"><g clip-path="url(#11)"></g></g><g clip-path="url(#12)"><g clip-path="url(#13)"></g></g><g clip-path="url(#14)"><g clip-path="url(#15)"></g></g><g clip-path="url(#16)"><g clip-path="url(#17)"></g></g><g clip-path="url(#18)"><g clip-path="url(#19)"></g></g><g clip-path="url(#20)"><g clip-path="url(#21)"></g></g><g clip-path="url(#22)"><g clip-path="url(#23)"></g></g><g clip-path="url(#24)"><g clip-path="url(#25)"></g></g><g clip-path="url(#26)"><g clip-path="url(#27)"></g></g><g clip-path="url(#28)"><g clip-path="url(#29)"></g></g><g clip-path="url(#30)"><g clip-path="url(#31)"></g></g><g clip-path="url(#32)"><g clip-path="url(#33)"></g></g><g clip-path="url(#34)"><g clip-path="url(#35)"></g></g><g clip-path="url(#36)"><g clip-path="url(#37)"></g></g><g clip-path="url(#38)"><g clip-path="url(#39)"></g></g><g clip-path="url(#40)"><g clip-path="url(#41)"></g></g><g clip-path="url(#42)"><g clip-path="url(#43)"><path transform="matrix(1 0 0 -1 0 841)" d="M36.45 625.55L151.15 625.55L151.15 625.55L151.15 605.3L151.15 605.3L36.45 605.3z" stroke="none" fill="#2D3E50" fill-rule="evenodd" /></g></g><g clip-path="url(#44)"><g clip-path="url(#45)"><path transform="matrix(1 0 0 -1 0 841)" d="M150.9 625.55L558.85 625.55L558.85 625.55L558.85 605.3L558.85 605.3L150.9 605.3z" stroke="none" fill="#2D3E50" fill-rule="evenodd" /></g></g><g clip-path="url(#46)"><g clip-path="url(#47)"></g></g><g clip-path="url(#48)"><g clip-path="url(#49)"><path transform="matrix(1 0 0 -1 0 841)" d="M36.45 518.95L151.15 518.95L151.15 518.95L151.15 498.7L151.15 498.7L36.45 498.7z" stroke="none" fill="#2D3E50" fill-rule="evenodd" /></g></g><g clip-path="url(#50)"><g clip-path="url(#51)"><path transform="matrix(1 0 0 -1 0 841)" d="M150.9 518.95L558.85 518.95L558.85 518.95L558.85 498.7L558.85 498.7L150.9 498.7z" stroke="none" fill="#2D3E50" fill-rule="evenodd" /></g></g><g clip-path="url(#52)"><g clip-path="url(#53)"></g></g><g clip-path="url(#54)"><g clip-path="url(#55)"><path transform="matrix(1 0 0 -1 0 841)" d="M36.45 326.55L151.15 326.55L151.15 326.55L151.15 306.3L151.15 306.3L36.45 306.3z" stroke="none" fill="#2D3E50" fill-rule="evenodd" /></g></g><g clip-path="url(#56)"><g clip-path="url(#57)"><path transform="matrix(1 0 0 -1 0 841)" d="M150.9 326.55L558.85 326.55L558.85 326.55L558.85 306.3L558.85 306.3L150.9 306.3z" stroke="none" fill="#2D3E50" fill-rule="evenodd" /></g></g><g clip-path="url(#58)"><g clip-path="url(#59)"></g></g><g clip-path="url(#60)"><g clip-path="url(#61)"><path transform="matrix(1 0 0 -1 0 841)" d="M36.45 193.35L151.15 193.35L151.15 193.35L151.15 173.1L151.15 173.1L36.45 173.1z" stroke="none" fill="#2D3E50" fill-rule="evenodd" /></g></g><g clip-path="url(#62)"><g clip-path="url(#63)"><path transform="matrix(1 0 0 -1 0 841)" d="M150.9 193.35L558.85 193.35L558.85 193.35L558.85 173.1L558.85 173.1L150.9 173.1z" stroke="none" fill="#2D3E50" fill-rule="evenodd" /></g></g><g clip-path="url(#64)"><g clip-path="url(#65)"></g></g><g clip-path="url(#66)"><g clip-path="url(#67)"><path transform="matrix(1 0 0 -1 0 841)" d="M36.45 87.60004L151.15 87.60004L151.15 87.60004L151.15 67.35004L151.15 67.35004L36.45 67.35004z" stroke="none" fill="#2D3E50" fill-rule="evenodd" /></g></g><g clip-path="url(#68)"><g clip-path="url(#69)"><path transform="matrix(1 0 0 -1 0 841)" d="M150.9 87.60004L558.85 87.60004L558.85 87.60004L558.85 67.35004L558.85 67.35004L150.9 67.35004z" stroke="none" fill="#2D3E50" fill-rule="evenodd" /></g></g><g clip-path="url(#70)"><g clip-path="url(#71)"></g></g><g clip-path="url(#72)"><g transform="matrix(0.3273134 0 0 0.3272026 470.4 100.86)"><g transform="matrix(1 0 0 1 0 0)"><image x="0" y="0" xlink:href="img_02.png" width="268" height="311" /></g></g></g></g></g></g></svg>